<?xml version="1.0" encoding="utf-8"?>
<!-- Generator: Adobe Illustrator 23.0.3, SVG Export Plug-In . SVG Version: 6.00 Build 0)  -->
<svg version="1.1" id="Layer_1" xmlns="http://www.w3.org/2000/svg" xmlns:xlink="http://www.w3.org/1999/xlink" x="0px" y="0px"
	 viewBox="0 0 64.1 16.5" style="enable-background:new 0 0 64.1 16.5;" xml:space="preserve">
<style type="text/css">
	.st0{fill-rule:evenodd;clip-rule:evenodd;fill:#231F20;}
</style>
<path class="st0" d="M2.6,5.6c1.4,0,2.6,1.2,2.6,2.6c0,1.4-1.2,2.6-2.6,2.6C1.2,10.9,0,9.7,0,8.3C0,6.8,1.2,5.6,2.6,5.6z M9,5.6
	c1.4,0,2.6,1.2,2.6,2.6c0,1.4-1.2,2.6-2.6,2.6c-1.4,0-2.6-1.2-2.6-2.6C6.4,6.8,7.6,5.6,9,5.6z M15.8,5.6c1.4,0,2.6,1.2,2.6,2.6
	c0,1.4-1.2,2.6-2.6,2.6c-1.4,0-2.6-1.2-2.6-2.6C13.1,6.8,14.3,5.6,15.8,5.6z M22.5,5.6c1.4,0,2.6,1.2,2.6,2.6c0,1.4-1.2,2.6-2.6,2.6
	c-1.4,0-2.6-1.2-2.6-2.6C19.9,6.8,21.1,5.6,22.5,5.6z M28.9,5.6c1.4,0,2.6,1.2,2.6,2.6c0,1.4-1.2,2.6-2.6,2.6
	c-1.4,0-2.6-1.2-2.6-2.6C26.3,6.8,27.4,5.6,28.9,5.6z M35.6,5.6c1.4,0,2.6,1.2,2.6,2.6c0,1.4-1.2,2.6-2.6,2.6
	c-1.4,0-2.6-1.2-2.6-2.6C33,6.8,34.2,5.6,35.6,5.6z M42,5.6c1.4,0,2.6,1.2,2.6,2.6c0,1.4-1.2,2.6-2.6,2.6c-1.4,0-2.6-1.2-2.6-2.6
	C39.4,6.8,40.6,5.6,42,5.6z M48.8,5.6c1.4,0,2.6,1.2,2.6,2.6c0,1.4-1.2,2.6-2.6,2.6c-1.4,0-2.6-1.2-2.6-2.6
	C46.1,6.8,47.3,5.6,48.8,5.6z M55.1,5.6c1.4,0,2.6,1.2,2.6,2.6c0,1.4-1.2,2.6-2.6,2.6c-1.4,0-2.6-1.2-2.6-2.6
	C52.5,6.8,53.7,5.6,55.1,5.6z M61.5,5.6c1.4,0,2.6,1.2,2.6,2.6c0,1.4-1.2,2.6-2.6,2.6c-1.4,0-2.6-1.2-2.6-2.6
	C58.9,6.8,60.1,5.6,61.5,5.6z M0,0h6.8v3.4H0V0z M8.3,0H15v3.4H8.3V0z M16.5,0h6.8v3.4h-6.8V0z M24.8,0h6.8v3.4h-6.8V0z M33,0h6.8
	v3.4H33V0z M41.3,0H48v3.4h-6.8V0z M49.5,0h6.8v3.4h-6.8V0z M57.4,0h6.8v3.4h-6.8V0z M0,13.1h6.8v3.4H0V13.1z M8.3,13.1H15v3.4H8.3
	V13.1z M16.5,13.1h6.8v3.4h-6.8V13.1z M24.8,13.1h6.8v3.4h-6.8V13.1z M33,13.1h6.8v3.4H33V13.1z M41.3,13.1H48v3.4h-6.8V13.1z
	 M49.5,13.1h6.8v3.4h-6.8V13.1z M57.4,13.1h6.8v3.4h-6.8V13.1z"/>
</svg>
