<?xml version="1.0" encoding="utf-8"?>
<!-- Generator: Adobe Illustrator 23.0.3, SVG Export Plug-In . SVG Version: 6.00 Build 0)  -->
<svg version="1.1" id="Layer_1" xmlns="http://www.w3.org/2000/svg" xmlns:xlink="http://www.w3.org/1999/xlink" x="0px" y="0px"
	 viewBox="0 0 114.9 73.2" style="enable-background:new 0 0 114.9 73.2;" xml:space="preserve">
<style type="text/css">
	.st0{fill:#231F20;}
</style>
<path class="st0" d="M93.7,30.5c0-0.4,0-0.9,0-1.3C93.8,13.1,80.7,0,64.6,0C52.7,0,42.5,7.1,37.9,17.3c-2.1-1.2-4.5-1.8-7-1.8
	c-7.6,0-13.8,5.8-14.4,13.2C7,31.4,0,40.1,0,50.5c0,12.5,10.2,22.7,22.7,22.7h26.8V52.9H37.2l20.5-21.2l20.5,21.2H66v20.3h27.5
	c11.8,0,21.4-9.6,21.4-21.4v0C114.9,40.1,105.4,30.6,93.7,30.5z"/>
</svg>
