<?xml version="1.0" encoding="utf-8"?>
<!-- Generator: Adobe Illustrator 23.0.3, SVG Export Plug-In . SVG Version: 6.00 Build 0)  -->
<svg version="1.1" id="art" xmlns="http://www.w3.org/2000/svg" xmlns:xlink="http://www.w3.org/1999/xlink" x="0px" y="0px"
	 viewBox="0 0 188.5 221.8" style="enable-background:new 0 0 188.5 221.8;" xml:space="preserve">
<g>
	<path style="fill:#94d31b;" d="M94.3,31.4c0.6,0,1-0.4,1-1V2c0-0.6-0.4-1-1-1s-1,0.4-1,1v28.4C93.3,30.9,93.7,31.4,94.3,31.4z"/>
	<path style="fill:#94d31b;" d="M152.5,143.6c-19.1,4.8-33.8,3.3-43.8-4.5c-12.5-9.8-13.5-26.6-13.5-31.6V79.5c0-0.6-0.4-1-1-1s-1,0.4-1,1v28.1
		c0,4.9-1,21.8-13.5,31.6c-9.9,7.7-24.6,9.2-43.8,4.5c-0.5-0.1-1.1,0.2-1.2,0.7c-0.1,0.5,0.2,1.1,0.7,1.2c7.4,1.9,14.3,2.8,20.4,2.8
		c10.2,0,18.6-2.5,25.1-7.6c2.3-1.8,4.2-3.8,5.8-5.9c5.4,18.7,9.8,48.3,1.6,85.7c-0.1,0.5,0.2,1.1,0.8,1.2c0.1,0,0.1,0,0.2,0
		c0.5,0,0.9-0.3,1-0.8c1.9-8.7,3.1-17.1,3.8-24.9c0.7,7.9,1.9,16.2,3.8,24.9c0.1,0.5,0.5,0.8,1,0.8c0.1,0,0.1,0,0.2,0
		c0.5-0.1,0.9-0.7,0.8-1.2c-8.2-37.4-3.8-67,1.6-85.7c1.6,2.1,3.5,4.1,5.8,5.9c6.5,5.1,14.9,7.6,25.1,7.6c6.2,0,13-0.9,20.4-2.8
		c0.5-0.1,0.9-0.7,0.7-1.2C153.6,143.8,153,143.5,152.5,143.6z M94.3,163.9c-0.9-10.2-2.7-19.1-4.7-26.5c1.2,0.9,2.6,1.5,4.2,1.6
		c0.1,0.1,0.3,0.1,0.4,0.1s0.3,0,0.4-0.1c1.6-0.1,3-0.7,4.2-1.6C96.9,144.7,95.2,153.6,94.3,163.9z M95.3,136.9v-7.6
		c0-0.6-0.4-1-1-1s-1,0.4-1,1v7.6c-2.3-0.4-4.1-2.3-4.5-4.7c3-4.9,4.7-10.1,5.5-14.6c0.9,4.5,2.5,9.7,5.5,14.6
		C99.4,134.5,97.6,136.4,95.3,136.9z"/>
	<path style="fill:#94d31b;" d="M30.6,0l-0.1,0c-0.5,0-1,0.3-1.4,0.7c-0.4,0.4-0.5,0.9-0.5,1.4c1.4,21.9-4.8,37.4-11.9,55.4
		c-12.5,31.4-28.1,70.6-4.2,162.2c0.2,0.9,1,1.5,1.9,1.5c0.2,0,0.3,0,0.5-0.1c0.5-0.1,1-0.5,1.2-0.9c0.3-0.5,0.3-1,0.2-1.5
		C-7.2,128.3,7.4,91.5,20.4,59c7-17.6,13.6-34.3,12.2-57.1C32.5,0.8,31.6,0,30.6,0z"/>
	<path style="fill:#94d31b;" d="M171.9,57.5c-7.1-18-13.3-33.5-11.9-55.4c0-0.5-0.1-1-0.5-1.4c-0.4-0.4-0.8-0.6-1.4-0.7L158,0c-1.1,0-1.9,0.8-2,1.9
		c-1.4,22.8,5.2,39.5,12.2,57.1c12.9,32.5,27.6,69.4,4,159.7c-0.1,0.5-0.1,1.1,0.2,1.5c0.3,0.5,0.7,0.8,1.2,0.9
		c0.2,0,0.3,0.1,0.5,0.1c0.9,0,1.7-0.6,1.9-1.5C199.9,128.1,184.4,88.9,171.9,57.5z"/>
</g>
</svg>
