<?xml version="1.0" encoding="utf-8"?>
<!-- Generator: Adobe Illustrator 23.0.3, SVG Export Plug-In . SVG Version: 6.00 Build 0)  -->
<svg version="1.1" id="art" xmlns="http://www.w3.org/2000/svg" xmlns:xlink="http://www.w3.org/1999/xlink" x="0px" y="0px"
	 viewBox="0 0 188.5 221.8" style="enable-background:new 0 0 188.5 221.8;" xml:space="preserve">
	 <style>
		 path {
			  fill: #94d31b;
			}
	 </style>
	<g>
		<path style="fill:#94d31b;" d="M30.6,0l-0.1,0c-1.1,0.1-1.9,1-1.9,2.1C30,24,23.8,39.5,16.7,57.5c-12.5,31.4-28.1,70.6-4.2,162.2c0.2,0.9,1,1.5,1.9,1.5
			c0.2,0,0.3,0,0.5-0.1c0.5-0.1,0.9-0.5,1.2-0.9c0.3-0.5,0.3-1,0.2-1.5C-7.2,128.3,7.4,91.5,20.4,59c7-17.6,13.6-34.3,12.2-57.1
			C32.5,0.8,31.6,0,30.6,0z"/>
		<path style="fill:#94d31b;" d="M171.9,57.5C164.7,39.5,158.6,24,160,2.1c0.1-1.1-0.8-2.1-1.9-2.1L158,0c-1,0-1.9,0.8-2,1.9c-1.4,22.8,5.2,39.5,12.2,57.1
			c12.9,32.5,27.6,69.4,4,159.7c-0.1,0.5-0.1,1.1,0.2,1.5c0.3,0.5,0.7,0.8,1.2,0.9c0.2,0,0.3,0.1,0.5,0.1c0.9,0,1.7-0.6,1.9-1.5
			C199.9,128.1,184.4,88.9,171.9,57.5z"/>
		<path style="fill:#94d31b;" d="M95.2,31.6c0.8,0.3,1.6,0.4,2.5,0.4c1.4,0,2.8-0.4,4.2-1.1c0.5-0.2,0.7-0.8,0.5-1.3c-0.2-0.5-0.8-0.7-1.3-0.5
			c-1.9,0.9-3.6,1.1-5.2,0.6c-1.6-0.6-2.9-2-3.8-4.1c-0.2-0.5-0.8-0.7-1.3-0.5c-0.5,0.2-0.7,0.8-0.5,1.3C91.3,29,93.1,30.8,95.2,31.6
			z"/>
		<path style="fill:#94d31b;" d="M119.3,113.4c-1.9,1.7-18.4,16.4-20.3,22.4c-0.7,1-2.1,1.7-3.7,1.9v-15.9c0-0.6-0.4-1-1-1s-1,0.4-1,1v15.9
			c-1.6-0.2-3-0.9-3.7-1.9c-1.9-6-18.4-20.7-20.3-22.4c-0.4-0.4-1-0.3-1.4,0.1c-0.4,0.4-0.3,1,0.1,1.4c4.6,4.1,16.2,15,19.2,20.3
			c0.1,0.6,0.3,1.1,0.7,1.6c0.8,3,11.2,45.9,1.1,83.8c-0.1,0.5,0.2,1.1,0.7,1.2c0.1,0,0.2,0,0.3,0c0.4,0,0.8-0.3,1-0.7
			c1.7-6.4,2.8-12.9,3.5-19.4c0.7,6.5,1.8,13,3.5,19.4c0.1,0.4,0.5,0.7,1,0.7c0.1,0,0.2,0,0.3,0c0.5-0.1,0.9-0.7,0.7-1.2
			c-10.1-37.9,0.3-80.8,1.1-83.8c0.3-0.5,0.5-1,0.7-1.6c3-5.3,14.5-16.2,19.2-20.3c0.4-0.4,0.5-1,0.1-1.4
			C120.3,113.1,119.7,113,119.3,113.4z M94.3,164.7c-1.1-11.9-3-21.3-4-25.8c1.1,0.6,2.5,0.9,4,0.9s2.8-0.3,4-0.9
			C97.2,143.4,95.4,152.7,94.3,164.7z"/>
	</g>
</svg>
