<?xml version="1.0" encoding="utf-8"?>
<!-- Generator: Adobe Illustrator 23.0.3, SVG Export Plug-In . SVG Version: 6.00 Build 0)  -->
<svg version="1.1" id="art" xmlns="http://www.w3.org/2000/svg" xmlns:xlink="http://www.w3.org/1999/xlink" x="0px" y="0px"
	 viewBox="0 0 170 162.4" style="enable-background:new 0 0 170 162.4;" xml:space="preserve">
<g>
	<style>
		path {
			 fill: #94d31b;
		 }
	</style>
	<path style="fill:#94d31b;" d="M168.9,50.7c-0.3-0.1-0.6-0.2-0.9-0.2c-0.8,0-1.5,0.4-1.8,1.1c-4.5,9.1-16.9,33.6-20.1,36.9c-0.3,0.3-31.7,32.6-61.1,32.6
		c-29.5,0-60.8-32.3-61.1-32.6C20.7,85.2,8.3,60.8,3.8,51.6c-0.3-0.7-1-1.1-1.8-1.1c-0.3,0-0.6,0.1-0.9,0.2c-1,0.5-1.4,1.7-0.9,2.7
		C0.9,54.7,16.7,86.8,21,91.3c0,0,1.5,1.5,4,3.8c0.9,4.3,7.1,36,0.8,64.9c-0.1,0.5,0,1.1,0.3,1.5c0.3,0.5,0.7,0.8,1.3,0.9
		c0.1,0,0.3,0,0.4,0c0.9,0,1.8-0.7,2-1.6c5.3-24.2,2.1-50.1,0.2-61.4c11.8,10,33.8,25.7,55.2,25.7c21.4,0,43.3-15.7,55.2-25.7
		c-1.9,11.3-5.1,37.3,0.2,61.4c0.2,0.9,1,1.6,2,1.6c0.1,0,0.3,0,0.4,0c1.1-0.2,1.8-1.3,1.5-2.4c-6.3-28.8-0.1-60.6,0.8-64.9
		c2.5-2.3,4-3.8,4-3.8c4.3-4.5,20.1-36.6,20.8-37.9C170.3,52.4,169.9,51.2,168.9,50.7z"/>
	<path style="fill:#94d31b;" d="M85,83.6c-6.5,0-12.8,1.1-17.1,3.1c-0.5,0.2-0.7,0.8-0.5,1.3c0.2,0.5,0.8,0.7,1.3,0.5c4.1-1.9,10-2.9,16.3-2.9
		s12.2,1.1,16.3,2.9c0.1,0.1,0.3,0.1,0.4,0.1c0.4,0,0.7-0.2,0.9-0.6c0.2-0.5,0-1.1-0.5-1.3C97.8,84.8,91.6,83.6,85,83.6z"/>
	<path style="fill:#94d31b;" d="M38.6,36.3c0.2,0,0.4-0.1,0.5-0.2c6.5-4.4,15.7-16.3,18.5-21.2c2.6-4.4,12.2-18.3,26.7-11c0,0,0,0,0.1,0
		c0.1,0,0.1,0,0.2,0.1c0.1,0,0.1,0,0.2,0c0.1,0,0.1,0,0.2,0C85,4,85,4,85.1,3.9c0,0,0,0,0.1,0c14.5-7.3,24.1,6.6,26.7,11
		c2.9,4.9,12,16.7,18.5,21.2c0.2,0.1,0.3,0.2,0.5,0.2c0.3,0,0.6-0.1,0.8-0.4c0.3-0.4,0.2-1-0.2-1.3c-6.1-4.1-15.1-15.7-18-20.6
		c-2.8-4.7-13-19.5-28.7-11.9C69.1-5.4,58.9,9.3,56.1,14c-2.9,4.9-11.9,16.5-18,20.6c-0.4,0.3-0.5,0.8-0.2,1.3
		C38,36.1,38.3,36.3,38.6,36.3z"/>
	<path style="fill:#94d31b;" d="M130,39c0.2-0.4,0.1-1-0.4-1.2c-0.4-0.2-1-0.1-1.2,0.4c-7.2,13.3-20.6,29.2-43.7,29.2c-23.1,0-36.5-15.9-43.7-29.2
		c-0.2-0.4-0.8-0.6-1.2-0.4c-0.4,0.2-0.6,0.8-0.4,1.2c6.1,11.3,20.1,30.1,45.3,30.1S123.9,50.2,130,39z"/>
	<path style="fill:#94d31b;" d="M46.4,38.3c-0.1,0.3,0,0.7,0.3,0.9c0.5,0.4,11.4,9.4,38.1,9.4c13.6,0,23.1-2.3,29.2-4.7c0,0,0.1,0,0.1,0
		c0.1,0,0.3,0,0.4-0.1c0.1-0.1,0.2-0.1,0.3-0.2c5.4-2.2,7.9-4.3,8.1-4.4c0.2-0.2,0.4-0.5,0.3-0.9s-0.3-0.6-0.6-0.7
		c-7.7-2.8-12.7-7.1-16.4-10.3c-0.5-0.5-1-0.9-1.5-1.3l-0.3-0.3c-2.8-2.3-8.6-7.2-19.6-7.2c-10.5,0-16.4,4.5-19.2,6.8
		c-2.2-2.9-5.3-5.9-9.9-3.4c-4.8,2.5-4.7,9.4-3.9,14.5c-2.6,0.6-4.6,1.1-4.6,1.1C46.7,37.7,46.4,38,46.4,38.3z M85.6,20.5
		c7.1,0.2,11.8,2.6,14.8,4.7c-0.1,0.7-0.3,2.2-0.6,3.6c-3.4,1-9.9,0.2-13.1-0.3c-0.7-0.1-1.2-0.7-1.2-1.3V20.5z M86.6,30.3
		c2.3,0.3,5.7,0.8,8.9,0.8c2.1,0,4.1-0.2,5.5-0.8c0.3-0.1,0.5-0.4,0.6-0.7c0.1-0.6,0.4-2,0.5-3.2c0.4,0.3,0.7,0.6,1,0.8l0.4,0.3
		c0.5,0.4,1,0.8,1.5,1.3c3.5,3,8.2,7,15.3,10c-1.2,0.7-3.1,1.9-6,3c-5-9.2-14.7-8.9-27.7-7.3c-10.9,1.3-14.7-1.1-17-3.6
		c4,0.5,9.7-0.1,13.2-0.6c0.7-0.1,1.4-0.4,1.8-0.9C85.2,29.9,85.8,30.2,86.6,30.3z M83.8,20.5v6.7c0,0.7-0.5,1.2-1.2,1.3
		c-3.4,0.4-11.4,1.3-14.8,0.2c-0.3-0.4-0.7-1-1.1-1.5c0-0.1-0.1-0.1-0.1-0.2C69.3,24.7,74.4,20.8,83.8,20.5z M56.5,23.7
		c3.8-2,6.1,0.7,8.8,4.5c0.5,0.7,0.9,1.3,1.4,1.8c0.2,0.2,0.3,0.4,0.5,0.6c2.3,2.9,5.8,7.3,19.8,5.6c14.3-1.7,21.6-1.2,25.7,6.2
		c-6,2.2-15.1,4.4-27.9,4.4c-2.7,0-5.3-0.1-7.7-0.3c-0.1-0.2-0.2-0.4-0.5-0.5c-13.8-6.1-16.9-13.7-17-13.8c-0.2-0.5-0.7-0.7-1.2-0.5
		c-0.5,0.2-0.7,0.7-0.5,1.2c0.1,0.3,2.8,7.1,14.4,13.2c-7.9-1-13.7-2.8-17.6-4.5C53,36,51.5,26.3,56.5,23.7z M52,38.3
		c0.2,0.9,0.4,1.7,0.5,2.3c-1.3-0.6-2.4-1.2-3.1-1.7C50.2,38.8,51.1,38.6,52,38.3z"/>
</g>
</svg>
